<svg width="179" height="40" viewBox="0 0 179 40" fill="none" xmlns="http://www.w3.org/2000/svg">
<path fill-rule="evenodd" clip-rule="evenodd" d="M22.4152 21.5299H24.6279V0.303284H21.9966V14.16C21.9966 16.0278 22.0365 17.3577 22.1162 18.1495H22.0265C21.2092 17.2765 20.342 16.4339 19.4251 15.6218L2.50075 0.303284H0.288025V21.5299H2.91937V7.42958C2.91937 6.1302 2.8795 4.87142 2.79976 3.65325H2.88947C3.56724 4.40446 4.41445 5.23687 5.4311 6.1505L22.4152 21.5299ZM99.4219 21.5299H102.412L89.7637 0.303284H87.4313L74.7829 21.5299H77.6834L80.7035 16.3831H96.4018L99.4219 21.5299ZM81.9593 14.1295L88.5078 3.04417H88.5676L95.116 14.1295H81.9593ZM43.3065 21.5299H29.0933V7.37882H43.147V9.20607H31.3259V13.2463H39.499V15.1142H31.3259V19.5808H43.3065V21.5299ZM55.3061 21.5299H53.0535V9.20607H46.216V7.37882H62.1236V9.20607H55.3061V21.5299ZM106.08 21.5299H117.801C118.984 21.5299 119.795 21.3472 120.233 20.9817C120.685 20.6027 120.911 19.8854 120.911 18.8296V15.906C120.911 14.8638 120.692 14.16 120.253 13.7945C119.815 13.4291 118.997 13.2463 117.801 13.2463H109.19C108.831 13.2463 108.592 13.2057 108.472 13.1245C108.366 13.0433 108.313 12.8538 108.313 12.556V9.89637C108.313 9.5986 108.366 9.4091 108.472 9.32789C108.592 9.23315 108.831 9.18577 109.19 9.18577H120.134V7.37882H109.13C107.974 7.37882 107.176 7.57508 106.738 7.9676C106.299 8.36012 106.08 9.06395 106.08 10.0791V12.3327C106.08 13.3885 106.299 14.1126 106.738 14.5051C107.176 14.8976 107.974 15.0939 109.13 15.0939H117.781C118.14 15.0939 118.373 15.1413 118.479 15.236C118.599 15.3172 118.659 15.5067 118.659 15.8045V18.8905C118.659 19.1748 118.599 19.3643 118.479 19.459C118.373 19.5402 118.14 19.5808 117.781 19.5808H106.08V21.5299ZM125.264 21.5299H136.985C138.168 21.5299 138.979 21.3472 139.417 20.9817C139.869 20.6027 140.095 19.8854 140.095 18.8296V15.906C140.095 14.8638 139.876 14.16 139.437 13.7945C138.999 13.4291 138.181 13.2463 136.985 13.2463H128.373C128.015 13.2463 127.775 13.2057 127.656 13.1245C127.55 13.0433 127.496 12.8538 127.496 12.556V9.89637C127.496 9.5986 127.55 9.4091 127.656 9.32789C127.775 9.23315 128.015 9.18577 128.373 9.18577H139.317V7.37882H128.314C127.157 7.37882 126.36 7.57508 125.922 7.9676C125.483 8.36012 125.264 9.06395 125.264 10.0791V12.3327C125.264 13.3885 125.483 14.1126 125.922 14.5051C126.36 14.8976 127.157 15.0939 128.314 15.0939H136.965C137.324 15.0939 137.557 15.1413 137.663 15.236C137.783 15.3172 137.842 15.5067 137.842 15.8045V18.8905C137.842 19.1748 137.783 19.3643 137.663 19.459C137.557 19.5402 137.324 19.5808 136.965 19.5808H125.264V21.5299ZM158.92 21.5299H144.707V7.37882H158.76V9.20607H146.939V13.2463H155.112V15.1142H146.939V19.5808H158.92V21.5299ZM168.667 21.5299H170.919V9.20607H177.737V7.37882H161.829V9.20607H168.667V21.5299Z" fill="#042742"/>
<path fill-rule="evenodd" clip-rule="evenodd" d="M24.917 21.8331H22.3086L5.2441 6.38093C4.43464 5.65348 3.72939 4.97489 3.13007 4.34608C3.18231 5.34772 3.20841 6.37555 3.20841 7.42953V21.8331H0V0H2.60838L19.6115 15.3898L19.6127 15.3909C20.3669 16.0589 21.0879 16.7476 21.7755 17.4569C21.7306 16.6514 21.7086 15.551 21.7086 14.1599V0H24.917V21.8331ZM22.0852 17.7801C22.0868 17.8024 22.0885 17.8245 22.0901 17.8462C22.096 17.9229 22.1021 17.9959 22.1086 18.0651C22.1112 18.0939 22.114 18.122 22.1167 18.1494H22.027C21.9538 18.0712 21.8801 17.9932 21.806 17.9154C21.0538 17.1256 20.2604 16.361 19.4256 15.6217L2.50125 0.303237H0.288535V21.5299H2.91988V7.42953C2.91988 6.25945 2.88755 5.1223 2.82289 4.01807C2.82169 3.99751 2.82047 3.97697 2.81925 3.95644C2.81487 3.88321 2.81036 3.81013 2.8057 3.73719C2.80391 3.70917 2.8021 3.68118 2.80027 3.65321H2.88998C2.95959 3.73037 3.031 3.80839 3.10419 3.88726C3.74358 4.57627 4.51939 5.33067 5.43161 6.15046L22.4157 21.5299H24.6285V0.303237H21.9971V14.1599C21.9971 15.7629 22.0265 16.9696 22.0852 17.7801ZM102.934 21.8331H99.2613L96.2412 16.6863H80.865L77.8449 21.8331H74.2623L87.2721 0H89.9239L102.934 21.8331ZM80.704 16.3831H96.4023L99.4224 21.5299H102.413L89.7642 0.303237H87.4318L74.7834 21.5299H77.6839L80.704 16.3831ZM28.8052 21.8331V7.07553H43.4361V9.50927H31.615V12.9431H39.7881V15.4174H31.615V19.2775H43.5955V21.8331H28.8052ZM39.4995 13.2463V15.1142H31.3264V19.5808H43.307V21.5299H29.0938V7.37877H43.1475V9.20603H31.3264V13.2463H39.4995ZM52.7655 21.8331V9.50927H45.928V7.07553H62.4127V9.50927H55.5951V21.8331H52.7655ZM46.2165 9.20603V7.37877H62.1242V9.20603H55.3066V21.5299H53.054V9.20603H46.2165ZM105.792 21.8331V19.2775H117.782C117.953 19.2775 118.083 19.2677 118.178 19.2512C118.265 19.2361 118.301 19.2187 118.308 19.2146C118.321 19.2014 118.371 19.1314 118.371 18.8905V15.8045C118.371 15.6737 118.357 15.5873 118.34 15.5345C118.331 15.5054 118.323 15.4927 118.32 15.4886L118.307 15.48L118.293 15.4673C118.296 15.4694 118.268 15.4469 118.171 15.4271C118.079 15.4084 117.951 15.3971 117.782 15.3971H109.13C107.964 15.3971 107.074 15.2037 106.551 14.7359C106.014 14.2548 105.792 13.4145 105.792 12.3327V10.0791C105.792 9.03321 106.016 8.2161 106.551 7.73669C107.074 7.26897 107.964 7.07553 109.13 7.07553H120.423V9.48896H109.19C109.021 9.48896 108.891 9.50027 108.795 9.51925C108.701 9.53786 108.66 9.56007 108.648 9.56854C108.645 9.57368 108.638 9.58766 108.63 9.61662C108.614 9.67325 108.602 9.76333 108.602 9.89632V12.556C108.602 12.689 108.614 12.7791 108.63 12.8357C108.636 12.8575 108.641 12.8709 108.645 12.8783C108.667 12.8883 108.711 12.9035 108.788 12.9165C108.887 12.9333 109.02 12.9431 109.19 12.9431H117.802C118.412 12.9431 118.937 12.9895 119.372 13.0867C119.804 13.1834 120.166 13.3343 120.433 13.5569C120.979 14.0119 121.2 14.8394 121.2 15.906V18.8296C121.2 19.9121 120.971 20.751 120.414 21.2187C119.892 21.6537 118.99 21.8331 117.802 21.8331H105.792ZM108.642 9.57318L108.644 9.57187ZM118.48 19.459C118.373 19.5402 118.141 19.5808 117.782 19.5808H106.08V21.5299H117.802C118.985 21.5299 119.795 21.3471 120.234 20.9817C120.686 20.6027 120.912 19.8853 120.912 18.8296V15.906C120.912 14.8638 120.692 14.1599 120.254 13.7945C119.815 13.429 118.998 13.2463 117.802 13.2463H109.19C108.831 13.2463 108.592 13.2057 108.473 13.1245C108.366 13.0433 108.313 12.8538 108.313 12.556V9.89632C108.313 9.59855 108.366 9.40906 108.473 9.32785C108.592 9.2331 108.831 9.18573 109.19 9.18573H120.134V7.37877H109.13C107.974 7.37877 107.177 7.57503 106.738 7.96755C106.3 8.36008 106.08 9.06391 106.08 10.0791V12.3327C106.08 13.3884 106.3 14.1125 106.738 14.5051C107.177 14.8976 107.974 15.0939 109.13 15.0939H117.782C118.141 15.0939 118.373 15.1412 118.48 15.236C118.599 15.3172 118.659 15.5067 118.659 15.8045V18.8905C118.659 19.1747 118.599 19.3642 118.48 19.459ZM124.976 21.8331V19.2775H136.966C137.137 19.2775 137.267 19.2677 137.362 19.2512C137.449 19.2361 137.484 19.2187 137.492 19.2146C137.505 19.2014 137.554 19.1314 137.554 18.8905V15.8045C137.554 15.6737 137.541 15.5873 137.524 15.5345C137.515 15.5054 137.507 15.4927 137.504 15.4886L137.491 15.48L137.477 15.4673C137.473 15.4647 137.441 15.4448 137.354 15.4271C137.263 15.4084 137.135 15.3971 136.966 15.3971H128.314C127.148 15.3971 126.258 15.2037 125.735 14.7359C125.197 14.2548 124.976 13.4145 124.976 12.3327V10.0791C124.976 9.03321 125.199 8.2161 125.735 7.73669C126.258 7.26897 127.148 7.07553 128.314 7.07553H139.607V9.48896H128.374C128.205 9.48896 128.075 9.50027 127.979 9.51925C127.885 9.53786 127.844 9.56007 127.832 9.56855C127.829 9.57369 127.822 9.58767 127.813 9.61662C127.798 9.67325 127.785 9.76333 127.785 9.89632V12.556C127.785 12.689 127.798 12.7791 127.813 12.8357C127.82 12.8575 127.825 12.8709 127.829 12.8783C127.851 12.8883 127.895 12.9035 127.971 12.9165C128.071 12.9333 128.203 12.9431 128.374 12.9431H136.986C137.596 12.9431 138.121 12.9895 138.556 13.0867C138.988 13.1834 139.35 13.3343 139.617 13.5569C140.163 14.0119 140.384 14.8394 140.384 15.906V18.8296C140.384 19.9121 140.155 20.751 139.598 21.2187C139.076 21.6537 138.174 21.8331 136.986 21.8331H124.976ZM127.826 9.57318L127.828 9.57185ZM137.663 19.459C137.557 19.5402 137.325 19.5808 136.966 19.5808H125.264V21.5299H136.986C138.168 21.5299 138.979 21.3471 139.418 20.9817C139.869 20.6027 140.095 19.8853 140.095 18.8296V15.906C140.095 14.8638 139.876 14.1599 139.438 13.7945C138.999 13.429 138.182 13.2463 136.986 13.2463H128.374C128.015 13.2463 127.776 13.2057 127.656 13.1245C127.55 13.0433 127.497 12.8538 127.497 12.556V9.89632C127.497 9.59855 127.55 9.40906 127.656 9.32785C127.776 9.2331 128.015 9.18573 128.374 9.18573H139.318V7.37877H128.314C127.158 7.37877 126.361 7.57503 125.922 7.96755C125.483 8.36008 125.264 9.06391 125.264 10.0791V12.3327C125.264 13.3884 125.483 14.1125 125.922 14.5051C126.361 14.8976 127.158 15.0939 128.314 15.0939H136.966C137.325 15.0939 137.557 15.1412 137.663 15.236C137.783 15.3172 137.843 15.5067 137.843 15.8045V18.8905C137.843 19.1747 137.783 19.3642 137.663 19.459ZM144.419 21.8331V7.07553H159.049V9.50927H147.228V12.9431H155.401V15.4174H147.228V19.2775H159.209V21.8331H144.419ZM155.113 13.2463V15.1142H146.94V19.5808H158.92V21.5299H144.707V7.37877H158.761V9.20603H146.94V13.2463H155.113ZM171.208 21.8331H168.379V9.50927H161.541V7.07553H178.026V9.50927H171.208V21.8331ZM168.667 9.20603V21.5299H170.92V9.20603H177.738V7.37877H161.83V9.20603H168.667ZM81.9598 14.1295H95.1165L88.5681 3.04412H88.5083L81.9598 14.1295ZM82.4786 13.8262H94.5978L88.5382 3.56841L82.4786 13.8262Z" fill="#042742"/>
<path fill-rule="evenodd" clip-rule="evenodd" d="M99.4219 21.5299H102.412L89.7637 0.303284H87.4313L74.783 21.5299H77.6834L80.7035 16.3831H96.4018L99.4219 21.5299ZM81.9594 14.1295L88.5078 3.04417H88.5676L95.1161 14.1295H81.9594Z" fill="#34AB47"/>
<path fill-rule="evenodd" clip-rule="evenodd" d="M102.934 21.8331H99.2613L96.2413 16.6863H80.865L77.845 21.8331H74.2623L87.2721 0H89.9239L102.934 21.8331ZM80.704 16.3831H96.4023L99.4224 21.5299H102.413L89.7642 0.303237H87.4319L74.7835 21.5299H77.6839L80.704 16.3831ZM81.9599 14.1295H95.1166L88.5681 3.04412H88.5083L81.9599 14.1295ZM82.4786 13.8262H94.5978L88.5382 3.56841L82.4786 13.8262Z" fill="#34AB47"/>
<path fill-rule="evenodd" clip-rule="evenodd" d="M22.4152 21.5299H24.6279V0.303284H21.9966V14.16C21.9966 16.0278 22.0365 17.3577 22.1162 18.1495H22.0265C21.2092 17.2765 20.342 16.4339 19.4251 15.6218L2.50074 0.303284H0.288025V21.5299H2.91937V7.42958C2.91937 6.1302 2.8795 4.87142 2.79976 3.65325H2.88947C3.56724 4.40446 4.41445 5.23687 5.4311 6.1505L22.4152 21.5299Z" fill="#34AB47"/>
<path fill-rule="evenodd" clip-rule="evenodd" d="M24.917 21.8331H22.3086L5.2441 6.38093C4.43464 5.65348 3.72939 4.97489 3.13007 4.34608C3.18231 5.34772 3.20841 6.37555 3.20841 7.42953V21.8331H0V0H2.60838L19.6115 15.3898L19.6127 15.3909C20.3669 16.0589 21.0879 16.7476 21.7755 17.4569C21.7306 16.6514 21.7086 15.551 21.7086 14.1599V0H24.917V21.8331ZM22.0852 17.7801C22.0868 17.8024 22.0885 17.8245 22.0901 17.8462C22.096 17.9229 22.1021 17.9959 22.1086 18.0651C22.1112 18.0939 22.114 18.122 22.1167 18.1494H22.027C21.9538 18.0712 21.8801 17.9932 21.806 17.9154C21.0538 17.1256 20.2604 16.361 19.4256 15.6217L2.50125 0.303237H0.288535V21.5299H2.91988V7.42953C2.91988 6.25945 2.88755 5.1223 2.82289 4.01807C2.82169 3.99751 2.82047 3.97697 2.81925 3.95644C2.81487 3.88321 2.81036 3.81013 2.8057 3.73719C2.80391 3.70917 2.8021 3.68118 2.80027 3.65321H2.88998C2.95959 3.73037 3.031 3.80839 3.10419 3.88726C3.74358 4.57627 4.51939 5.33067 5.43161 6.15046L22.4157 21.5299H24.6285V0.303237H21.9971V14.1599C21.9971 15.7629 22.0265 16.9696 22.0852 17.7801Z" fill="#34AB47"/>
<path d="M39.8726 31.908V38.5486H38.9239V35.5888H35.1103V38.5486H34.1617V31.908H35.1103V34.7634H38.9239V31.908H39.8726Z" fill="#042742"/>
<path d="M48.6601 37.7232V38.5486H43.8409V31.908H48.5273V32.7333H44.7896V34.7729H48.1194V35.5793H44.7896V37.7232H48.6601Z" fill="#042742"/>
<path d="M58.3747 37.7232V40H57.4925V38.5486H52.0282L52.0187 40H51.1365L51.146 37.7232H51.4685C51.8859 37.6979 52.18 37.3691 52.3507 36.7366C52.5215 36.0979 52.6259 35.1998 52.6638 34.0425L52.7302 31.908H57.3976V37.7232H58.3747ZM53.4986 34.1278C53.467 35.0638 53.3911 35.8386 53.2709 36.452C53.1571 37.0655 52.9705 37.4892 52.7112 37.7232H56.4584V32.7333H53.5461L53.4986 34.1278Z" fill="#042742"/>
<path d="M65.7051 35.105C66.1541 35.2125 66.4925 35.4054 66.7201 35.6836C66.9541 35.9556 67.0711 36.3066 67.0711 36.7366C67.0711 37.3122 66.8593 37.758 66.4355 38.0742C66.0181 38.3905 65.4078 38.5486 64.6046 38.5486H61.5689V31.908H64.4244C65.1517 31.908 65.7177 32.0566 66.1225 32.3539C66.5336 32.6448 66.7391 33.0653 66.7391 33.6156C66.7391 33.9761 66.6474 34.2828 66.464 34.5358C66.2869 34.7887 66.0339 34.9785 65.7051 35.105ZM62.5081 34.8298H64.358C64.8197 34.8298 65.1707 34.7381 65.411 34.5547C65.6576 34.3713 65.781 34.1025 65.781 33.7484C65.781 33.3942 65.6576 33.1254 65.411 32.942C65.1643 32.7523 64.8133 32.6574 64.358 32.6574H62.5081V34.8298ZM64.5857 37.7991C65.6039 37.7991 66.113 37.4197 66.113 36.6607C66.113 36.2813 65.9834 36.003 65.7241 35.8259C65.4711 35.6425 65.0916 35.5508 64.5857 35.5508H62.5081V37.7991H64.5857Z" fill="#042742"/>
<path d="M70.5534 31.908H71.4925V37.0307L75.42 31.908H76.2927V38.5486H75.3631V33.4353L71.4261 38.5486H70.5534V31.908Z" fill="#042742"/>
<path d="M85.8385 35.6267H84.5768V38.5486H83.6471V35.6267H82.3759L80.5166 38.5486H79.4066L81.598 35.0955L79.5679 31.908H80.583L82.357 34.7919H83.6471V31.908H84.5768V34.7919H85.848L87.6315 31.908H88.6465L86.6164 35.1144L88.8078 38.5486H87.6979L85.8385 35.6267Z" fill="#042742"/>
<path d="M91.6999 31.908H92.6391V37.0307L96.5665 31.908H97.4392V38.5486H96.5096V33.4353L92.5726 38.5486H91.6999V31.908Z" fill="#042742"/>
<path d="M107.564 38.5486L107.554 33.7104L105.154 37.7422H104.718L102.318 33.7389V38.5486H101.407V31.908H102.185L104.955 36.5754L107.687 31.908H108.465L108.474 38.5486H107.564Z" fill="#042742"/>
<path d="M115.427 38.6245C114.757 38.6245 114.153 38.479 113.615 38.1881C113.078 37.8908 112.654 37.4829 112.344 36.9643C112.04 36.4457 111.889 35.867 111.889 35.2283C111.889 34.5895 112.04 34.0108 112.344 33.4922C112.654 32.9736 113.078 32.5689 113.615 32.278C114.153 31.9807 114.757 31.8321 115.427 31.8321C116.091 31.8321 116.692 31.9807 117.229 32.278C117.767 32.5689 118.188 32.9736 118.491 33.4922C118.795 34.0045 118.947 34.5832 118.947 35.2283C118.947 35.8734 118.795 36.4552 118.491 36.9738C118.188 37.4861 117.767 37.8908 117.229 38.1881C116.692 38.479 116.091 38.6245 115.427 38.6245ZM115.427 37.7802C115.914 37.7802 116.35 37.6695 116.736 37.4481C117.128 37.2268 117.435 36.9232 117.656 36.5374C117.884 36.1453 117.998 35.7089 117.998 35.2283C117.998 34.7476 117.884 34.3144 117.656 33.9286C117.435 33.5365 117.128 33.2298 116.736 33.0084C116.35 32.7871 115.914 32.6764 115.427 32.6764C114.94 32.6764 114.497 32.7871 114.099 33.0084C113.707 33.2298 113.397 33.5365 113.169 33.9286C112.948 34.3144 112.837 34.7476 112.837 35.2283C112.837 35.7089 112.948 36.1453 113.169 36.5374C113.397 36.9232 113.707 37.2268 114.099 37.4481C114.497 37.6695 114.94 37.7802 115.427 37.7802Z" fill="#042742"/>
<path d="M125.347 38.6245C124.683 38.6245 124.082 38.479 123.544 38.1881C123.013 37.8908 122.596 37.4861 122.292 36.9738C121.988 36.4552 121.837 35.8734 121.837 35.2283C121.837 34.5832 121.988 34.0045 122.292 33.4922C122.596 32.9736 123.016 32.5689 123.554 32.278C124.091 31.9807 124.692 31.8321 125.356 31.8321C125.875 31.8321 126.349 31.9206 126.779 32.0977C127.209 32.2685 127.576 32.5246 127.88 32.8661L127.263 33.4638C126.763 32.9389 126.14 32.6764 125.394 32.6764C124.901 32.6764 124.455 32.7871 124.057 33.0084C123.658 33.2298 123.345 33.5365 123.117 33.9286C122.896 34.3144 122.785 34.7476 122.785 35.2283C122.785 35.7089 122.896 36.1453 123.117 36.5374C123.345 36.9232 123.658 37.2268 124.057 37.4481C124.455 37.6695 124.901 37.7802 125.394 37.7802C126.134 37.7802 126.757 37.5145 127.263 36.9833L127.88 37.5809C127.576 37.9225 127.206 38.1818 126.77 38.3588C126.34 38.5359 125.865 38.6245 125.347 38.6245Z" fill="#042742"/>
<path d="M135.573 32.7333H133.296V38.5486H132.366V32.7333H130.099V31.908H135.573V32.7333Z" fill="#042742"/>
<path d="M141.536 34.2227C142.326 34.2227 142.93 34.3998 143.347 34.754C143.771 35.1081 143.983 35.6299 143.983 36.3192C143.983 37.0465 143.755 37.5999 143.3 37.9794C142.851 38.3588 142.206 38.5486 141.365 38.5486H138.623V31.908H139.562V34.2227H141.536ZM141.327 37.7991C141.877 37.7991 142.298 37.6758 142.589 37.4292C142.886 37.1762 143.034 36.8125 143.034 36.3382C143.034 35.4275 142.465 34.9721 141.327 34.9721H139.562V37.7991H141.327Z" fill="#042742"/>
</svg>
